<?xml version="1.0" encoding="UTF-8" standalone="no"?>
<!DOCTYPE svg PUBLIC "-//W3C//DTD SVG 1.1//EN" "http://www.w3.org/Graphics/SVG/1.1/DTD/svg11.dtd">
<svg width="100%" height="100%" viewBox="0 0 1053 843" version="1.1" xmlns="http://www.w3.org/2000/svg" xmlns:xlink="http://www.w3.org/1999/xlink" xml:space="preserve" xmlns:serif="http://www.serif.com/" style="fill-rule:evenodd;clip-rule:evenodd;stroke-miterlimit:10;">
    <g transform="matrix(1,0,0,1,64.7926,86.5883)">
        <g id="path609-4" transform="matrix(3.6906,0,0,-3.6906,815.528,450.226)">
            <path d="M0,0L-45.237,-32.748" style="fill:none;fill-rule:nonzero;stroke:rgb(80,80,80);stroke-width:5px;"/>
        </g>
        <g id="path613-3" transform="matrix(3.6906,0,0,-3.6906,313.758,434.631)">
            <path d="M0,0L7.341,-31.566" style="fill:none;fill-rule:nonzero;stroke:black;stroke-width:5px;"/>
        </g>
        <g id="path617-7" transform="matrix(3.6906,0,0,-3.6906,581.524,232.823)">
            <path d="M0,0L6.255,20.715" style="fill:none;fill-rule:nonzero;stroke:rgb(48,48,48);stroke-width:5px;"/>
        </g>
        <g id="path621-6" transform="matrix(3.6906,0,0,-3.6906,304.94,100.502)">
            <path d="M0,0L-47.589,-34.384" style="fill:none;fill-rule:nonzero;stroke:rgb(80,80,80);stroke-width:5px;"/>
        </g>
        <g id="path625-8" transform="matrix(3.6906,0,0,-3.6906,653.163,133.754)">
            <path d="M0,0L48,-59.901" style="fill:none;fill-rule:nonzero;stroke:rgb(80,80,80);stroke-width:5px;"/>
        </g>
        <g id="path629-31" transform="matrix(3.6906,0,0,-3.6906,92.3579,327.268)">
            <path d="M0,0L56.757,-70.6" style="fill:none;fill-rule:nonzero;stroke:rgb(80,80,80);stroke-width:5px;"/>
        </g>
        <g id="path633-9" transform="matrix(3.6906,0,0,-3.6906,349.532,395.573)">
            <path d="M0,0L116.82,0.926" style="fill:none;fill-rule:nonzero;stroke:rgb(80,80,80);stroke-width:5px;"/>
        </g>
        <g id="path637-0" transform="matrix(3.6906,0,0,-3.6906,523.823,270.491)">
            <path d="M0,0L-103.647,-1.207" style="fill:none;fill-rule:nonzero;stroke:rgb(80,80,80);stroke-width:5px;"/>
        </g>
        <g id="path641-8" transform="matrix(3.6906,0,0,-3.6906,373.382,119.076)">
            <path d="M0,0L44.243,-35.577" style="fill:none;fill-rule:nonzero;stroke:rgb(80,80,80);stroke-width:5px;"/>
        </g>
        <g id="path645-26" transform="matrix(3.6906,0,0,-3.6906,556.847,330.927)">
            <path d="M0,0L-48.468,-60.66" style="fill:none;fill-rule:nonzero;stroke:rgb(80,80,80);stroke-width:5px;"/>
        </g>
        <g id="path649-4" transform="matrix(3.6906,0,0,-3.6906,365.502,119.993)">
            <path d="M0,0L53.026,-114.28" style="fill:none;fill-rule:nonzero;stroke:rgb(80,80,80);stroke-width:5px;"/>
        </g>
        <g id="path653-5" transform="matrix(3.6906,0,0,-3.6906,389.894,79.3624)">
            <path d="M0,0L48.899,-7.778" style="fill:none;fill-rule:nonzero;stroke:rgb(176,31,201);stroke-width:7px;"/>
        </g>
        <g id="path657-4" transform="matrix(3.6906,0,0,-3.6906,128.46,299.787)">
            <path d="M0,0L34.549,-19.856" style="fill:none;fill-rule:nonzero;stroke:rgb(176,31,201);stroke-width:7px;"/>
        </g>
        <g id="path661-7" transform="matrix(3.6906,0,0,-3.6906,352.504,373.07)">
            <path d="M0,0L45.541,19.634" style="fill:none;fill-rule:nonzero;stroke:rgb(176,31,201);stroke-width:7px;"/>
        </g>
        <g id="path665-7" transform="matrix(3.6906,0,0,-3.6906,613.648,297.084)">
            <path d="M0,0L52.961,-18.38" style="fill:none;fill-rule:nonzero;stroke:rgb(176,31,201);stroke-width:7px;"/>
        </g>
        <g id="path669-7" transform="matrix(3.6906,0,0,-3.6906,578.941,141.091)">
            <path d="M0,0L-118.541,-27.338" style="fill:none;fill-rule:nonzero;stroke:rgb(176,31,201);stroke-width:7px;"/>
        </g>
        <g id="path673-2" transform="matrix(3.6906,0,0,-3.6906,784.338,419.955)">
            <path d="M0,0L-113.487,-36.136" style="fill:none;fill-rule:nonzero;stroke:rgb(176,31,201);stroke-width:7px;"/>
        </g>
        <g id="path677-1" transform="matrix(3.6906,0,0,-3.6906,403.655,601.771)">
            <path d="M0,0L40.763,5.203" style="fill:none;fill-rule:nonzero;stroke:rgb(176,31,201);stroke-width:7px;"/>
        </g>
        <g id="path689-6" transform="matrix(4.42872,0,0,-4.42872,421.309,70.5592)">
            <path d="M0,0C0,-8.497 -6.888,-15.384 -15.384,-15.384C-23.881,-15.384 -30.769,-8.497 -30.769,0C-30.769,8.497 -23.881,15.384 -15.384,15.384C-6.888,15.384 0,8.497 0,0" style="fill:rgb(176,31,201);fill-rule:nonzero;"/>
        </g>
        <g id="path693-9" transform="matrix(4.42872,0,0,-4.42872,421.309,70.5592)">
            <path d="M0,0C0,-8.497 -6.888,-15.384 -15.384,-15.384C-23.881,-15.384 -30.769,-8.497 -30.769,0C-30.769,8.497 -23.881,15.384 -15.384,15.384C-6.888,15.384 0,8.497 0,0Z" style="fill:none;fill-rule:nonzero;stroke:black;stroke-width:4px;"/>
        </g>
        <g id="path697-9" transform="matrix(4.42872,0,0,-4.42872,686.107,109.734)">
            <path d="M0,0C0,-8.497 -6.888,-15.384 -15.384,-15.384C-23.88,-15.384 -30.768,-8.497 -30.768,0C-30.768,8.496 -23.88,15.384 -15.384,15.384C-6.888,15.384 0,8.496 0,0" style="fill:rgb(176,31,201);fill-rule:nonzero;"/>
        </g>
        <g id="path701-9" transform="matrix(4.42872,0,0,-4.42872,686.107,109.734)">
            <path d="M0,0C0,-8.497 -6.888,-15.384 -15.384,-15.384C-23.88,-15.384 -30.768,-8.497 -30.768,0C-30.768,8.496 -23.88,15.384 -15.384,15.384C-6.888,15.384 0,8.496 0,0Z" style="fill:none;fill-rule:nonzero;stroke:black;stroke-width:4px;"/>
        </g>
        <g id="path705-7" transform="matrix(4.42872,0,0,-4.42872,160.491,270.491)">
            <path d="M0,0C0,-8.497 -6.888,-15.384 -15.384,-15.384C-23.881,-15.384 -30.769,-8.497 -30.769,0C-30.769,8.497 -23.881,15.384 -15.384,15.384C-6.888,15.384 0,8.497 0,0" style="fill:rgb(176,31,201);fill-rule:nonzero;"/>
        </g>
        <g id="path709-1" transform="matrix(4.42872,0,0,-4.42872,160.491,270.491)">
            <path d="M0,0C0,-8.497 -6.888,-15.384 -15.384,-15.384C-23.881,-15.384 -30.769,-8.497 -30.769,0C-30.769,8.497 -23.881,15.384 -15.384,15.384C-6.888,15.384 0,8.497 0,0Z" style="fill:none;fill-rule:nonzero;stroke:black;stroke-width:4px;"/>
        </g>
        <g id="path713-9" transform="matrix(4.42872,0,0,-4.42872,369.957,387.702)">
            <path d="M0,0C0,-8.497 -6.888,-15.385 -15.384,-15.385C-23.88,-15.385 -30.768,-8.497 -30.768,0C-30.768,8.496 -23.88,15.384 -15.384,15.384C-6.888,15.384 0,8.496 0,0" style="fill:rgb(176,31,201);fill-rule:nonzero;"/>
        </g>
        <g id="path717-7" transform="matrix(4.42872,0,0,-4.42872,369.957,387.702)">
            <path d="M0,0C0,-8.497 -6.888,-15.385 -15.384,-15.385C-23.88,-15.385 -30.768,-8.497 -30.768,0C-30.768,8.496 -23.88,15.384 -15.384,15.384C-6.888,15.384 0,8.496 0,0Z" style="fill:none;fill-rule:nonzero;stroke:black;stroke-width:4px;"/>
        </g>
        <g id="path721-7" transform="matrix(4.42872,0,0,-4.42872,641.171,278.88)">
            <path d="M0,0C0,-8.496 -6.888,-15.384 -15.385,-15.384C-23.881,-15.384 -30.769,-8.496 -30.769,0C-30.769,8.497 -23.881,15.384 -15.385,15.384C-6.888,15.384 0,8.497 0,0" style="fill:rgb(176,31,201);fill-rule:nonzero;"/>
        </g>
        <g id="path725-6" transform="matrix(4.42872,0,0,-4.42872,641.171,278.88)">
            <path d="M0,0C0,-8.496 -6.888,-15.384 -15.385,-15.384C-23.881,-15.384 -30.769,-8.496 -30.769,0C-30.769,8.497 -23.881,15.384 -15.385,15.384C-6.888,15.384 0,8.497 0,0Z" style="fill:none;fill-rule:nonzero;stroke:black;stroke-width:4px;"/>
        </g>
        <g id="path729-6" transform="matrix(4.42872,0,0,-4.42872,898.443,400.767)">
            <path d="M0,0C0,-8.497 -6.888,-15.385 -15.384,-15.385C-23.881,-15.385 -30.769,-8.497 -30.769,0C-30.769,8.496 -23.881,15.384 -15.384,15.384C-6.888,15.384 0,8.496 0,0" style="fill:rgb(176,31,201);fill-rule:nonzero;"/>
        </g>
        <g id="path733-9" transform="matrix(4.42872,0,0,-4.42872,898.443,400.767)">
            <path d="M0,0C0,-8.497 -6.888,-15.385 -15.384,-15.385C-23.881,-15.385 -30.769,-8.497 -30.769,0C-30.769,8.496 -23.881,15.384 -15.384,15.384C-6.888,15.384 0,8.496 0,0Z" style="fill:none;fill-rule:nonzero;stroke:black;stroke-width:4px;"/>
        </g>
        <g id="path737-8" transform="matrix(4.42872,0,0,-4.42872,421.309,598.531)">
            <path d="M0,0C0,-8.497 -6.888,-15.385 -15.384,-15.385C-23.881,-15.385 -30.769,-8.497 -30.769,0C-30.769,8.496 -23.881,15.384 -15.384,15.384C-6.888,15.384 0,8.496 0,0" style="fill:rgb(176,31,201);fill-rule:nonzero;"/>
        </g>
        <g id="path741-29" transform="matrix(4.42872,0,0,-4.42872,421.309,598.531)">
            <path d="M0,0C0,-8.497 -6.888,-15.385 -15.384,-15.385C-23.881,-15.385 -30.769,-8.497 -30.769,0C-30.769,8.496 -23.881,15.384 -15.384,15.384C-6.888,15.384 0,8.496 0,0Z" style="fill:none;fill-rule:nonzero;stroke:black;stroke-width:4px;"/>
        </g>
        <g id="path745-9" transform="matrix(4.42872,0,0,-4.42872,668.649,571.086)">
            <path d="M0,0C0,-8.497 -6.888,-15.385 -15.385,-15.385C-23.881,-15.385 -30.769,-8.497 -30.769,0C-30.769,8.496 -23.881,15.384 -15.385,15.384C-6.888,15.384 0,8.496 0,0" style="fill:rgb(176,31,201);fill-rule:nonzero;"/>
        </g>
        <g id="path749-8" transform="matrix(4.42872,0,0,-4.42872,668.649,571.086)">
            <path d="M0,0C0,-8.497 -6.888,-15.385 -15.385,-15.385C-23.881,-15.385 -30.769,-8.497 -30.769,0C-30.769,8.496 -23.881,15.384 -15.385,15.384C-6.888,15.384 0,8.496 0,0Z" style="fill:none;fill-rule:nonzero;stroke:black;stroke-width:4px;"/>
        </g>
        <g id="path5551-5" transform="matrix(2.76795,0,0,2.76795,-834.929,-627.732)">
            <path d="M438.215,240.495L438.215,244.343C435.533,243.028 433.065,242.37 430.813,242.37C427.922,242.37 425.487,243.308 423.508,245.183C421.529,247.045 420.539,249.336 420.539,252.058C420.539,254.831 421.548,257.149 423.567,259.011C425.598,260.86 428.137,261.784 431.184,261.784C433.397,261.784 435.741,261.088 438.215,259.694L438.215,263.581C435.962,264.779 433.521,265.378 430.891,265.378C427.037,265.378 423.742,264.076 421.008,261.472C418.274,258.855 416.906,255.704 416.906,252.019C416.906,248.399 418.248,245.3 420.93,242.722C423.625,240.144 426.867,238.855 430.656,238.855C433.091,238.855 435.611,239.401 438.215,240.495Z" style="fill:white;fill-rule:nonzero;stroke:white;stroke-width:1px;stroke-miterlimit:4;"/>
        </g>
        <g id="path5554-9" transform="matrix(2.76795,0,0,2.76795,-834.929,-627.732)">
            <path d="M532.616,256.84L529.862,259.047C529.133,258.292 528.469,257.732 527.87,257.367C527.284,256.989 526.431,256.801 525.312,256.801C524.088,256.801 523.092,257.081 522.323,257.64C521.568,258.187 521.191,258.897 521.191,259.769C521.191,260.525 521.523,261.195 522.187,261.781C522.851,262.354 523.984,262.986 525.585,263.676C527.187,264.353 528.43,264.991 529.316,265.59C530.214,266.176 530.95,266.827 531.523,267.543C532.096,268.259 532.519,269.014 532.792,269.808C533.079,270.603 533.222,271.443 533.222,272.328C533.222,274.398 532.467,276.163 530.956,277.621C529.459,279.079 527.642,279.808 525.507,279.808C523.424,279.808 521.581,279.242 519.98,278.109C518.391,276.963 517.167,275.251 516.308,272.972L519.706,272.015C520.943,274.815 522.838,276.215 525.39,276.215C526.627,276.215 527.655,275.844 528.476,275.101C529.296,274.359 529.706,273.422 529.706,272.289C529.706,271.612 529.491,270.935 529.062,270.258C528.632,269.568 528.098,269.001 527.46,268.558C526.822,268.116 525.8,267.614 524.394,267.055C523.001,266.482 521.926,265.961 521.171,265.492C520.429,265.01 519.784,264.444 519.237,263.793C518.691,263.129 518.287,262.471 518.027,261.82C517.779,261.169 517.655,260.473 517.655,259.73C517.655,257.946 518.372,256.43 519.804,255.18C521.236,253.917 522.974,253.285 525.019,253.285C526.373,253.285 527.747,253.578 529.14,254.164C530.533,254.75 531.692,255.642 532.616,256.84Z" style="fill:white;fill-rule:nonzero;stroke:white;stroke-width:1px;stroke-miterlimit:4;"/>
        </g>
        <g id="path5557-3" transform="matrix(2.76795,0,0,2.76795,-834.929,-627.732)">
            <path d="M331.446,311.895L337.911,311.895L337.911,336.7L334.552,336.7L334.552,315.177L330.313,315.177L331.446,311.895Z" style="fill:white;fill-rule:nonzero;stroke:white;stroke-width:1px;stroke-miterlimit:4;"/>
        </g>
        <g id="path5560-5" transform="matrix(2.76795,0,0,2.76795,-834.929,-627.732)">
            <path d="M406.536,359.555L402.903,359.555C403.138,357.459 403.958,355.864 405.364,354.77C406.783,353.663 408.496,353.11 410.501,353.11C412.806,353.11 414.713,353.767 416.224,355.082C417.734,356.397 418.489,358.045 418.489,360.024C418.489,362.485 417.239,364.366 414.739,365.668C417.669,367.179 419.134,369.262 419.134,371.918C419.134,374.002 418.333,375.811 416.731,377.348C415.143,378.871 413.255,379.633 411.067,379.633C408.867,379.633 406.959,379.086 405.345,377.992C403.743,376.886 402.688,375.141 402.181,372.758L405.892,372.758C406.699,375.336 408.352,376.625 410.852,376.625C412.128,376.625 413.242,376.189 414.192,375.317C415.143,374.431 415.618,373.403 415.618,372.231C415.618,371.007 415.182,369.887 414.309,368.871C413.437,367.843 412.005,367.309 410.013,367.27L410.013,364.184C411.536,364.158 412.727,363.787 413.587,363.071C414.459,362.341 414.895,361.41 414.895,360.278C414.895,359.119 414.492,358.136 413.684,357.328C412.877,356.521 411.894,356.117 410.735,356.117C409.642,356.117 408.769,356.391 408.118,356.938C407.467,357.485 406.94,358.357 406.536,359.555Z" style="fill:white;fill-rule:nonzero;stroke:white;stroke-width:1px;stroke-miterlimit:4;"/>
        </g>
        <g id="path5563-1" transform="matrix(2.76795,0,0,2.76795,-834.929,-627.732)">
            <path d="M504.352,320.376L500.719,320.376C500.953,318.28 501.774,316.685 503.18,315.591C504.599,314.485 506.312,313.931 508.317,313.931C510.621,313.931 512.529,314.589 514.039,315.904C515.55,317.219 516.305,318.866 516.305,320.845C516.305,323.306 515.055,325.188 512.555,326.49C515.485,328 516.95,330.083 516.95,332.74C516.95,334.823 516.149,336.633 514.547,338.169C512.959,339.693 511.071,340.455 508.883,340.455C506.683,340.455 504.775,339.908 503.16,338.814C501.559,337.707 500.504,335.962 499.996,333.58L503.707,333.58C504.515,336.158 506.168,337.447 508.668,337.447C509.944,337.447 511.058,337.011 512.008,336.138C512.959,335.253 513.434,334.224 513.434,333.052C513.434,331.828 512.998,330.708 512.125,329.693C511.253,328.664 509.821,328.13 507.828,328.091L507.828,325.005C509.352,324.979 510.543,324.608 511.403,323.892C512.275,323.163 512.711,322.232 512.711,321.099C512.711,319.94 512.308,318.957 511.5,318.15C510.693,317.343 509.71,316.939 508.551,316.939C507.457,316.939 506.585,317.212 505.934,317.759C505.283,318.306 504.756,319.179 504.352,320.376Z" style="fill:white;fill-rule:nonzero;stroke:white;stroke-width:1px;stroke-miterlimit:4;"/>
        </g>
        <g id="path5566-5" transform="matrix(2.76795,0,0,2.76795,-834.929,-627.732)">
            <path d="M600.498,380.226L609.971,380.226L609.971,383.546L592.979,383.546L605.654,370.07C606.605,369.028 607.08,367.882 607.08,366.632C607.08,365.161 606.579,363.885 605.576,362.804C604.574,361.723 603.395,361.183 602.041,361.183C600.921,361.183 599.867,361.541 598.877,362.257C597.901,362.973 597.262,364.08 596.963,365.577L593.682,365.577C594.007,363.129 594.971,361.228 596.572,359.874C598.187,358.507 600.081,357.823 602.256,357.823C604.43,357.823 606.325,358.683 607.94,360.402C609.554,362.107 610.361,364.132 610.361,366.476C610.361,367.609 610.153,368.65 609.736,369.601C609.333,370.538 608.61,371.56 607.568,372.667L600.498,380.226Z" style="fill:white;fill-rule:nonzero;stroke:white;stroke-width:1px;stroke-miterlimit:4;"/>
        </g>
        <g id="path5569-8" transform="matrix(2.76795,0,0,2.76795,-834.929,-627.732)">
            <path d="M421.784,431.496L436.999,431.496L436.999,434.894L431.061,434.894L431.061,456.379L427.702,456.379L427.702,434.894L421.784,434.894L421.784,431.496Z" style="fill:white;fill-rule:nonzero;stroke:white;stroke-width:1px;stroke-miterlimit:4;"/>
        </g>
        <g id="path5572-8" transform="matrix(2.76795,0,0,2.76795,-834.929,-627.732)">
            <path d="M518.675,418.92L530.433,444.76L526.878,444.76L523.968,438.393L513.402,438.393L510.57,444.76L507.034,444.76L518.675,418.92ZM518.675,426.713L514.671,435.561L522.679,435.561L518.675,426.713Z" style="fill:white;fill-rule:nonzero;stroke:white;stroke-width:1px;stroke-miterlimit:4;"/>
        </g>
        <g id="path5551" transform="matrix(2.76795,0,0,2.76795,-834.929,-627.732)">
            <path d="M438.215,240.495L438.215,244.343C435.533,243.028 433.065,242.37 430.813,242.37C427.922,242.37 425.487,243.308 423.508,245.183C421.529,247.045 420.539,249.336 420.539,252.058C420.539,254.831 421.548,257.149 423.567,259.011C425.598,260.86 428.137,261.784 431.184,261.784C433.397,261.784 435.741,261.088 438.215,259.694L438.215,263.581C435.962,264.779 433.521,265.378 430.891,265.378C427.037,265.378 423.742,264.076 421.008,261.472C418.274,258.855 416.906,255.704 416.906,252.019C416.906,248.399 418.248,245.3 420.93,242.722C423.625,240.144 426.867,238.855 430.656,238.855C433.091,238.855 435.611,239.401 438.215,240.495Z" style="fill:white;fill-rule:nonzero;stroke:white;stroke-width:1px;stroke-miterlimit:4;"/>
        </g>
        <g id="path5554" transform="matrix(2.76795,0,0,2.76795,-834.929,-627.732)">
            <path d="M532.616,256.84L529.862,259.047C529.133,258.292 528.469,257.732 527.87,257.367C527.284,256.989 526.431,256.801 525.312,256.801C524.088,256.801 523.092,257.081 522.323,257.64C521.568,258.187 521.191,258.897 521.191,259.769C521.191,260.525 521.523,261.195 522.187,261.781C522.851,262.354 523.984,262.986 525.585,263.676C527.187,264.353 528.43,264.991 529.316,265.59C530.214,266.176 530.95,266.827 531.523,267.543C532.096,268.259 532.519,269.014 532.792,269.808C533.079,270.603 533.222,271.443 533.222,272.328C533.222,274.398 532.467,276.163 530.956,277.621C529.459,279.079 527.642,279.808 525.507,279.808C523.424,279.808 521.581,279.242 519.98,278.109C518.391,276.963 517.167,275.251 516.308,272.972L519.706,272.015C520.943,274.815 522.838,276.215 525.39,276.215C526.627,276.215 527.655,275.844 528.476,275.101C529.296,274.359 529.706,273.422 529.706,272.289C529.706,271.612 529.491,270.935 529.062,270.258C528.632,269.568 528.098,269.001 527.46,268.558C526.822,268.116 525.8,267.614 524.394,267.055C523.001,266.482 521.926,265.961 521.171,265.492C520.429,265.01 519.784,264.444 519.237,263.793C518.691,263.129 518.287,262.471 518.027,261.82C517.779,261.169 517.655,260.473 517.655,259.73C517.655,257.946 518.372,256.43 519.804,255.18C521.236,253.917 522.974,253.285 525.019,253.285C526.373,253.285 527.747,253.578 529.14,254.164C530.533,254.75 531.692,255.642 532.616,256.84Z" style="fill:white;fill-rule:nonzero;stroke:white;stroke-width:1px;stroke-miterlimit:4;"/>
        </g>
        <g id="path5557" transform="matrix(2.76795,0,0,2.76795,-834.929,-627.732)">
            <path d="M331.446,311.895L337.911,311.895L337.911,336.7L334.552,336.7L334.552,315.177L330.313,315.177L331.446,311.895Z" style="fill:white;fill-rule:nonzero;stroke:white;stroke-width:1px;stroke-miterlimit:4;"/>
        </g>
        <g id="path5560" transform="matrix(2.76795,0,0,2.76795,-834.929,-627.732)">
            <path d="M406.536,359.555L402.903,359.555C403.138,357.459 403.958,355.864 405.364,354.77C406.783,353.663 408.496,353.11 410.501,353.11C412.806,353.11 414.713,353.767 416.224,355.082C417.734,356.397 418.489,358.045 418.489,360.024C418.489,362.485 417.239,364.366 414.739,365.668C417.669,367.179 419.134,369.262 419.134,371.918C419.134,374.002 418.333,375.811 416.731,377.348C415.143,378.871 413.255,379.633 411.067,379.633C408.867,379.633 406.959,379.086 405.345,377.992C403.743,376.886 402.688,375.141 402.181,372.758L405.892,372.758C406.699,375.336 408.352,376.625 410.852,376.625C412.128,376.625 413.242,376.189 414.192,375.317C415.143,374.431 415.618,373.403 415.618,372.231C415.618,371.007 415.182,369.887 414.309,368.871C413.437,367.843 412.005,367.309 410.013,367.27L410.013,364.184C411.536,364.158 412.727,363.787 413.587,363.071C414.459,362.341 414.895,361.41 414.895,360.278C414.895,359.119 414.492,358.136 413.684,357.328C412.877,356.521 411.894,356.117 410.735,356.117C409.642,356.117 408.769,356.391 408.118,356.938C407.467,357.485 406.94,358.357 406.536,359.555Z" style="fill:white;fill-rule:nonzero;stroke:white;stroke-width:1px;stroke-miterlimit:4;"/>
        </g>
        <g id="path5563" transform="matrix(2.76795,0,0,2.76795,-834.929,-627.732)">
            <path d="M504.352,320.376L500.719,320.376C500.953,318.28 501.774,316.685 503.18,315.591C504.599,314.485 506.312,313.931 508.317,313.931C510.621,313.931 512.529,314.589 514.039,315.904C515.55,317.219 516.305,318.866 516.305,320.845C516.305,323.306 515.055,325.188 512.555,326.49C515.485,328 516.95,330.083 516.95,332.74C516.95,334.823 516.149,336.633 514.547,338.169C512.959,339.693 511.071,340.455 508.883,340.455C506.683,340.455 504.775,339.908 503.16,338.814C501.559,337.707 500.504,335.962 499.996,333.58L503.707,333.58C504.515,336.158 506.168,337.447 508.668,337.447C509.944,337.447 511.058,337.011 512.008,336.138C512.959,335.253 513.434,334.224 513.434,333.052C513.434,331.828 512.998,330.708 512.125,329.693C511.253,328.664 509.821,328.13 507.828,328.091L507.828,325.005C509.352,324.979 510.543,324.608 511.403,323.892C512.275,323.163 512.711,322.232 512.711,321.099C512.711,319.94 512.308,318.957 511.5,318.15C510.693,317.343 509.71,316.939 508.551,316.939C507.457,316.939 506.585,317.212 505.934,317.759C505.283,318.306 504.756,319.179 504.352,320.376Z" style="fill:white;fill-rule:nonzero;stroke:white;stroke-width:1px;stroke-miterlimit:4;"/>
        </g>
        <g id="path5566" transform="matrix(2.76795,0,0,2.76795,-834.929,-627.732)">
            <path d="M600.498,380.226L609.971,380.226L609.971,383.546L592.979,383.546L605.654,370.07C606.605,369.028 607.08,367.882 607.08,366.632C607.08,365.161 606.579,363.885 605.576,362.804C604.574,361.723 603.395,361.183 602.041,361.183C600.921,361.183 599.867,361.541 598.877,362.257C597.901,362.973 597.262,364.08 596.963,365.577L593.682,365.577C594.007,363.129 594.971,361.228 596.572,359.874C598.187,358.507 600.081,357.823 602.256,357.823C604.43,357.823 606.325,358.683 607.94,360.402C609.554,362.107 610.361,364.132 610.361,366.476C610.361,367.609 610.153,368.65 609.736,369.601C609.333,370.538 608.61,371.56 607.568,372.667L600.498,380.226Z" style="fill:white;fill-rule:nonzero;stroke:white;stroke-width:1px;stroke-miterlimit:4;"/>
        </g>
        <g id="path5569" transform="matrix(2.76795,0,0,2.76795,-834.929,-627.732)">
            <path d="M421.784,431.496L436.999,431.496L436.999,434.894L431.061,434.894L431.061,456.379L427.702,456.379L427.702,434.894L421.784,434.894L421.784,431.496Z" style="fill:white;fill-rule:nonzero;stroke:white;stroke-width:1px;stroke-miterlimit:4;"/>
        </g>
        <g id="path5572" transform="matrix(2.76795,0,0,2.76795,-834.929,-627.732)">
            <path d="M518.675,418.92L530.433,444.76L526.878,444.76L523.968,438.393L513.402,438.393L510.57,444.76L507.034,444.76L518.675,418.92ZM518.675,426.713L514.671,435.561L522.679,435.561L518.675,426.713Z" style="fill:white;fill-rule:nonzero;stroke:white;stroke-width:1px;stroke-miterlimit:4;"/>
        </g>
    </g>
</svg>
